<?xml version="1.0" standalone="no"?>
<!DOCTYPE svg PUBLIC "-//W3C//DTD SVG 20010904//EN"
 "http://www.w3.org/TR/2001/REC-SVG-20010904/DTD/svg10.dtd">
<svg version="1.0" xmlns="http://www.w3.org/2000/svg"
 width="400.000000pt" height="400.000000pt" viewBox="0 0 400.000000 400.000000"
 preserveAspectRatio="xMidYMid meet">
<metadata>
Created by potrace 1.14, written by Peter Selinger 2001-2017
</metadata>
<g transform="translate(0.000000,400.000000) scale(0.100000,-0.100000)"
fill="#000000" stroke="none">
<path d="M359 2795 c-5 -100 -2 -1779 2 -1787 5 -8 986 -14 1312 -8 l27 0 -2
172 -3 173 -430 2 c-236 1 -446 2 -465 2 l-35 1 1 197 1 198 396 3 c369 2 397
3 398 20 1 22 1 293 0 309 -1 10 -91 13 -398 15 l-397 3 -1 175 c-1 96 0 180
2 185 2 7 151 10 444 10 242 0 445 3 450 6 6 3 8 77 7 175 l-3 169 -652 0
c-647 0 -653 0 -654 -20z"/>
<path d="M2316 2800 c-3 -8 -7 -33 -11 -55 -3 -22 -7 -47 -10 -55 -5 -17 -13
-59 -21 -110 -3 -19 -7 -43 -10 -52 -3 -10 -7 -30 -10 -45 -4 -24 -51 -277
-69 -368 -7 -37 -31 -168 -40 -215 -3 -19 -10 -54 -16 -78 -5 -23 -12 -59 -15
-80 -3 -20 -7 -39 -9 -42 -2 -3 -6 -24 -9 -46 -4 -22 -9 -51 -11 -64 -3 -14
-12 -63 -21 -110 -9 -47 -18 -94 -20 -105 -2 -11 -13 -69 -24 -130 -12 -60
-27 -138 -34 -173 -10 -44 -11 -64 -3 -69 6 -3 49 -6 96 -5 47 0 118 1 157 1
l70 1 33 173 c36 196 37 201 54 282 l13 60 225 1 c368 2 472 19 639 100 183
90 313 258 355 459 50 235 5 438 -124 565 -79 77 -199 138 -306 154 -22 4 -49
9 -60 13 -11 3 -199 7 -418 7 -348 1 -398 0 -401 -14z m784 -299 c136 -39 197
-112 207 -246 17 -223 -112 -387 -334 -426 -84 -15 -509 -18 -507 -4 1 6 4 28
7 50 5 34 22 123 42 225 3 14 21 111 41 215 20 105 38 193 40 196 7 13 457 3
504 -10z"/>
</g>
</svg>
